<svg width="600" height="600" viewBox="0 0 600 600" fill="none" xmlns="http://www.w3.org/2000/svg">
<g clip-path="url(#clip0_1_3)">
<rect width="600" height="600" rx="81" fill="#3F3F3F"/>
<rect x="150.34" y="111.248" width="299.098" height="378.45" fill="#5E352C"/>
<rect x="195.51" y="38" width="28.0786" height="28.0786" rx="11.5" fill="#F4D221"/>
<rect x="240.679" y="38" width="28.0786" height="28.0786" rx="11.5" fill="#F4D221"/>
<rect x="285.849" y="38" width="28.0786" height="28.0786" rx="11.5" fill="#F4D221"/>
<rect x="331.019" y="38" width="28.0786" height="28.0786" rx="11.5" fill="#F4D221"/>
<rect x="376.189" y="38" width="28.0786" height="28.0786" rx="11.5" fill="#F4D221"/>
<path d="M150.34 111.248C150.34 95.741 162.911 83.1698 178.418 83.1698V83.1698V111.248H150.34V111.248Z" fill="#F4D221"/>
<rect x="195.51" y="83.1698" width="28.0786" height="28.0786" fill="#F4D221"/>
<rect x="240.679" y="83.1698" width="28.0786" height="28.0786" fill="#F4D221"/>
<rect x="285.849" y="83.1698" width="28.0786" height="28.0786" fill="#F4D221"/>
<rect x="331.019" y="83.1698" width="28.0786" height="28.0786" fill="#F4D221"/>
<rect x="376.189" y="83.1698" width="28.0786" height="28.0786" fill="#F4D221"/>
<path d="M421.359 83.1698V83.1698C436.866 83.1698 449.437 95.741 449.437 111.248V111.248H421.359V83.1698Z" fill="#F4D221"/>
<rect x="105.17" y="128.34" width="28.0786" height="28.0786" rx="11.5" fill="#F4D221"/>
<rect x="150.34" y="128.34" width="28.0786" height="28.0786" fill="#F4D221"/>
<rect x="195.51" y="128.34" width="28.0786" height="28.0786" fill="#E0411E"/>
<rect x="240.679" y="128.34" width="28.0786" height="28.0786" fill="#E0411E"/>
<rect x="285.849" y="128.34" width="28.0786" height="28.0786" fill="#E0411E"/>
<rect x="331.019" y="128.34" width="28.0786" height="28.0786" fill="#E0411E"/>
<rect x="376.189" y="128.34" width="28.0786" height="28.0786" fill="#E0411E"/>
<rect x="421.359" y="128.34" width="28.0786" height="28.0786" fill="#F4D221"/>
<rect x="466.529" y="128.34" width="28.0786" height="28.0786" rx="11.5" fill="#F4D221"/>
<rect x="105.17" y="173.51" width="28.0786" height="28.0786" rx="11.5" fill="#F4D221"/>
<rect x="60" y="173.51" width="28.0786" height="28.0786" rx="11.5" fill="#F4D221"/>
<rect x="150.34" y="173.51" width="28.0786" height="28.0786" fill="#F4D221"/>
<rect x="195.51" y="173.51" width="28.0786" height="28.0786" fill="#E0411E"/>
<rect x="240.679" y="173.51" width="28.0786" height="28.0786" fill="#E0411E"/>
<rect x="285.849" y="173.51" width="28.0786" height="28.0786" fill="#E0411E"/>
<rect x="331.019" y="173.51" width="28.0786" height="28.0786" fill="#E0411E"/>
<rect x="376.189" y="173.51" width="28.0786" height="28.0786" fill="#E0411E"/>
<rect x="421.359" y="173.51" width="28.0786" height="28.0786" fill="#F4D221"/>
<rect x="466.529" y="173.51" width="28.0786" height="28.0786" rx="11.5" fill="#F4D221"/>
<rect x="511.699" y="173.51" width="28.0786" height="28.0786" rx="11.5" fill="#F4D221"/>
<rect x="105.17" y="218.679" width="28.0786" height="28.0786" rx="11.5" fill="#F4D221"/>
<rect x="150.34" y="218.679" width="28.0786" height="28.0786" fill="#F4D221"/>
<rect x="195.51" y="218.679" width="28.0786" height="28.0786" fill="#E0411E"/>
<rect x="240.679" y="218.679" width="28.0786" height="28.0786" fill="#E0411E"/>
<rect x="285.849" y="218.679" width="28.0786" height="28.0786" fill="#F4D221"/>
<rect x="331.019" y="218.679" width="28.0786" height="28.0786" fill="#F4D221"/>
<rect x="376.189" y="218.679" width="28.0786" height="28.0786" fill="#F4D221"/>
<rect x="421.359" y="218.679" width="28.0786" height="28.0786" fill="#F4D221"/>
<rect x="466.529" y="218.679" width="28.0786" height="28.0786" rx="11.5" fill="#F4D221"/>
<rect x="511.699" y="218.679" width="28.0786" height="28.0786" rx="11.5" fill="#F4D221"/>
<rect x="105.17" y="263.849" width="28.0786" height="28.0786" rx="11.5" fill="#F4D221"/>
<rect x="150.34" y="263.849" width="28.0786" height="28.0786" fill="#F4D221"/>
<rect x="195.51" y="263.849" width="28.0786" height="28.0786" fill="#E0411E"/>
<rect x="240.679" y="263.849" width="28.0786" height="28.0786" fill="#E0411E"/>
<rect x="285.849" y="263.849" width="28.0786" height="28.0786" fill="#E0411E"/>
<rect x="331.019" y="263.849" width="28.0786" height="28.0786" fill="#E0411E"/>
<rect x="376.189" y="263.849" width="28.0786" height="28.0786" fill="#F4D221"/>
<rect x="421.359" y="263.849" width="28.0786" height="28.0786" fill="#F4D221"/>
<rect x="466.529" y="263.849" width="28.0786" height="28.0786" rx="11.5" fill="#F4D221"/>
<rect x="105.17" y="309.019" width="28.0786" height="28.0786" rx="11.5" fill="#F4D221"/>
<rect x="150.34" y="309.019" width="28.0786" height="28.0786" fill="#F4D221"/>
<rect x="195.51" y="309.019" width="28.0786" height="28.0786" fill="#E0411E"/>
<rect x="240.679" y="309.019" width="28.0786" height="28.0786" fill="#E0411E"/>
<rect x="285.849" y="309.019" width="28.0786" height="28.0786" fill="#E0411E"/>
<rect x="331.019" y="309.019" width="28.0786" height="28.0786" fill="#E0411E"/>
<rect x="376.189" y="309.019" width="28.0786" height="28.0786" fill="#F4D221"/>
<rect x="421.359" y="309.019" width="28.0786" height="28.0786" fill="#F4D221"/>
<rect x="466.529" y="309.019" width="28.0786" height="28.0786" rx="11.5" fill="#F4D221"/>
<rect x="105.17" y="354.189" width="28.0786" height="28.0786" rx="11.5" fill="#F4D221"/>
<rect x="60" y="218.679" width="28.0786" height="28.0786" rx="11.5" fill="#F4D221"/>
<rect x="60" y="263.849" width="28.0786" height="28.0786" rx="11.5" fill="#F4D221"/>
<rect x="60" y="309.019" width="28.0786" height="28.0786" rx="11.5" fill="#F4D221"/>
<rect x="60" y="354.189" width="28.0786" height="28.0786" rx="11.5" fill="#F4D221"/>
<rect x="150.34" y="354.189" width="28.0786" height="28.0786" fill="#F4D221"/>
<rect x="195.51" y="354.189" width="28.0786" height="28.0786" fill="#E0411E"/>
<rect x="240.679" y="354.189" width="28.0786" height="28.0786" fill="#E0411E"/>
<rect x="285.849" y="354.189" width="28.0786" height="28.0786" fill="#F4D221"/>
<rect x="331.019" y="354.189" width="28.0786" height="28.0786" fill="#F4D221"/>
<rect x="376.189" y="354.189" width="28.0786" height="28.0786" fill="#F4D221"/>
<rect x="421.359" y="354.189" width="28.0786" height="28.0786" fill="#F4D221"/>
<rect x="466.529" y="354.189" width="28.0786" height="28.0786" rx="11.5" fill="#F4D221"/>
<rect x="511.699" y="263.849" width="28.0786" height="28.0786" rx="11.5" fill="#F4D221"/>
<rect x="511.699" y="309.019" width="28.0786" height="28.0786" rx="11.5" fill="#F4D221"/>
<rect x="511.699" y="354.189" width="28.0786" height="28.0786" rx="11.5" fill="#F4D221"/>
<rect x="105.17" y="399.359" width="28.0786" height="28.0786" rx="11.5" fill="#F4D221"/>
<rect x="60" y="399.359" width="28.0786" height="28.0786" rx="11.5" fill="#F4D221"/>
<rect x="150.34" y="399.359" width="28.0786" height="28.0786" fill="#F4D221"/>
<rect x="195.51" y="399.359" width="28.0786" height="28.0786" fill="#E0411E"/>
<rect x="240.679" y="399.359" width="28.0786" height="28.0786" fill="#E0411E"/>
<rect x="285.849" y="399.359" width="28.0786" height="28.0786" fill="#F4D221"/>
<rect x="331.019" y="399.359" width="28.0786" height="28.0786" fill="#F4D221"/>
<rect x="376.189" y="399.359" width="28.0786" height="28.0786" fill="#F4D221"/>
<rect x="421.359" y="399.359" width="28.0786" height="28.0786" fill="#F4D221"/>
<rect x="466.529" y="399.359" width="28.0786" height="28.0786" rx="11.5" fill="#F4D221"/>
<rect x="511.699" y="399.359" width="28.0786" height="28.0786" rx="11.5" fill="#F4D221"/>
<rect x="150.34" y="444.529" width="28.0786" height="28.0786" fill="#F4D221"/>
<rect x="195.51" y="444.529" width="28.0786" height="28.0786" fill="#E0411E"/>
<rect x="240.679" y="444.529" width="28.0786" height="28.0786" fill="#E0411E"/>
<rect x="285.849" y="444.529" width="28.0786" height="28.0786" fill="#F4D221"/>
<rect x="331.019" y="444.529" width="28.0786" height="28.0786" fill="#F4D221"/>
<rect x="376.189" y="444.529" width="28.0786" height="28.0786" fill="#F4D221"/>
<rect x="421.359" y="444.529" width="28.0786" height="28.0786" fill="#F4D221"/>
<rect x="195.51" y="489.699" width="28.0786" height="28.0786" fill="#F4D221"/>
<rect x="240.679" y="489.699" width="28.0786" height="28.0786" fill="#F4D221"/>
<rect x="285.849" y="489.699" width="28.0786" height="28.0786" fill="#F4D221"/>
<rect x="331.019" y="489.699" width="28.0786" height="28.0786" fill="#F4D221"/>
<rect x="376.189" y="489.699" width="28.0786" height="28.0786" fill="#F4D221"/>
<path d="M150.34 489.699H178.418V517.777V517.777C162.911 517.777 150.34 505.206 150.34 489.699V489.699Z" fill="#F4D221"/>
<rect x="195.51" y="534.868" width="28.0786" height="28.0786" rx="11.5" fill="#F4D221"/>
<rect x="240.679" y="534.868" width="28.0786" height="28.0786" rx="11.5" fill="#F4D221"/>
<rect x="285.849" y="534.868" width="28.0786" height="28.0786" rx="11.5" fill="#F4D221"/>
<rect x="331.019" y="534.868" width="28.0786" height="28.0786" rx="11.5" fill="#F4D221"/>
<rect x="466.529" y="444.529" width="28.0786" height="28.0786" rx="11.5" fill="#F4D221"/>
<path d="M421.359 489.699H449.437V489.699C449.437 505.206 436.866 517.777 421.359 517.777V517.777V489.699Z" fill="#F4D221"/>
<rect x="105.17" y="444.529" width="28.0786" height="28.0786" rx="11.5" fill="#F4D221"/>
<rect x="376.189" y="534.868" width="28.0786" height="28.0786" rx="11.5" fill="#F4D221"/>
</g>
<defs>
<clipPath id="clip0_1_3">
<rect width="600" height="600" fill="white"/>
</clipPath>
</defs>
</svg>
